<svg xmlns="http://www.w3.org/2000/svg" xmlns:xlink="http://www.w3.org/1999/xlink" viewBox="0 0 726.5 726.5"><defs><style>.cls-1,.cls-6{fill:none;}.cls-2{fill:#fff;}.cls-3{isolation:isolate;}.cls-4{clip-path:url(#clip-path);}.cls-5{fill:#e00a17;}.cls-6{stroke:#e00a17;stroke-linecap:round;stroke-linejoin:round;stroke-width:22px;}.cls-7{font-size:49.83px;font-family:Barlow-ExtraBold, Barlow;font-weight:800;}.cls-8{letter-spacing:0em;}.cls-9{letter-spacing:0em;}.cls-10{letter-spacing:0em;}</style><clipPath id="clip-path"><polygon class="cls-1" points="97.75 564.12 154.68 180.59 439.2 162.37 382.27 545.9 97.75 564.12"/></clipPath></defs><g id="Livello_2" data-name="Livello 2"><g id="Livello_1-2" data-name="Livello 1"><rect class="cls-2" width="726.5" height="726.5" rx="205.8"/><g class="cls-3"><g class="cls-4"><path class="cls-5" d="M306.22,170.89a105.68,105.68,0,0,0-24.29,4.45,187.76,187.76,0,0,0-55.53,28.37c-25.87,18.94-48.41,44.35-65.75,73.42a263.18,263.18,0,0,0-34.46,95.41,227.46,227.46,0,0,0-2.47,38.79c.52,22.38,4.48,42.81,11.29,60.77,10.21,26.94,26.79,48.27,47.73,62.44s46.29,21.17,74,19.4a147.37,147.37,0,0,0,33.92-6.34,135.27,135.27,0,0,0,26.12-11.46A178.42,178.42,0,0,0,361,500.76a182.75,182.75,0,0,0,20.41-27.15,186.59,186.59,0,0,0,16.32-33.88c3.18-8.8.27-17.43-6.51-19.29a10,10,0,0,0-3.36-.33c-5.9.37-12,5.51-14.68,12.88a138.64,138.64,0,0,1-33.5,52.09,141.6,141.6,0,0,1-26.48,20.43,110.22,110.22,0,0,1-23.26,10.64,123.67,123.67,0,0,1-28.35,5.3h0c-30.81,2-58.07-9.08-77.83-29.91a113.31,113.31,0,0,1-23.52-38.14A152,152,0,0,1,150.83,403a189.52,189.52,0,0,1,2-32.18,213.47,213.47,0,0,1,15.71-54.06A220.09,220.09,0,0,1,215.72,248c19.54-19.13,42.34-33.63,67-41.19a81.4,81.4,0,0,1,18.73-3.41A86.61,86.61,0,0,1,328.52,206a91.48,91.48,0,0,1,35.15,17.78A79.65,79.65,0,0,1,376.45,237a63.18,63.18,0,0,1,8.33,14.39,9.93,9.93,0,0,0,10.08,6.6,14.28,14.28,0,0,0,7.72-3.14c6.89-5.32,10.09-15.51,7.15-22.74a88.59,88.59,0,0,0-16.31-25.78,109.32,109.32,0,0,0-87.2-35.41"/></g></g><line class="cls-6" x1="425.7" y1="398.45" x2="223.3" y2="398.45"/><line class="cls-6" x1="621.59" y1="295.38" x2="567.15" y2="295.38"/><line class="cls-6" x1="583.12" y1="398.45" x2="460.05" y2="398.45"/><line class="cls-6" x1="457.03" y1="295.38" x2="254.64" y2="295.38"/><line class="cls-6" x1="285.46" y1="361.12" x2="194.96" y2="361.12"/><line class="cls-6" x1="285.46" y1="332.71" x2="233.96" y2="332.71"/><line class="cls-6" x1="536.04" y1="295.38" x2="486.9" y2="295.38"/><text class="cls-7" transform="translate(313.96 363.25)"><tspan class="cls-8">E</tspan><tspan class="cls-9" x="28.9" y="0">V</tspan><tspan x="60.35" y="0">ER</tspan><tspan class="cls-10" x="119.7" y="0">S</tspan><tspan x="149.35" y="0">TREAM</tspan></text></g></g></svg>